<svg xmlns="http://www.w3.org/2000/svg" viewBox="0 0 1200 900" width="1200" height="900" role="img" aria-label="Mock person reference sheet">
  <defs>
    <linearGradient id="bg2" x1="0" y1="0" x2="1" y2="1">
      <stop offset="0" stop-color="#241726"/>
      <stop offset="1" stop-color="#16101a"/>
    </linearGradient>
    <linearGradient id="skin" x1="0" y1="0" x2="0" y2="1">
      <stop offset="0" stop-color="#f0a3cf"/>
      <stop offset="1" stop-color="#e164c4"/>
    </linearGradient>
    <linearGradient id="brand2" x1="0" y1="0" x2="1" y2="0">
      <stop offset="0" stop-color="#7c5cff"/>
      <stop offset="0.5" stop-color="#e164c4"/>
      <stop offset="1" stop-color="#56b6e8"/>
    </linearGradient>
  </defs>
  <rect width="1200" height="900" fill="url(#bg2)"/>
  <text x="48" y="70" fill="#ffffff" font-family="system-ui, sans-serif" font-size="34" font-weight="700">Person Reference Sheet</text>
  <rect x="48" y="92" width="220" height="6" rx="3" fill="url(#brand2)"/>
  <g font-family="system-ui, sans-serif">
    <g>
      <rect x="48" y="140" width="352" height="690" rx="20" fill="#2a1f2e" stroke="#48374c" stroke-width="2"/>
      <circle cx="224" cy="320" r="72" fill="url(#skin)"/>
      <rect x="156" y="410" width="136" height="260" rx="40" fill="url(#skin)"/>
      <text x="74" y="810" fill="#d3b9cf" font-size="22" font-weight="600">Front</text>
    </g>
    <g>
      <rect x="424" y="140" width="352" height="690" rx="20" fill="#2a1f2e" stroke="#48374c" stroke-width="2"/>
      <circle cx="600" cy="320" r="72" fill="#d77fb6"/>
      <rect x="540" y="410" width="120" height="260" rx="36" fill="#d77fb6"/>
      <text x="450" y="810" fill="#d3b9cf" font-size="22" font-weight="600">Three-quarter</text>
    </g>
    <g>
      <rect x="800" y="140" width="352" height="690" rx="20" fill="#2a1f2e" stroke="#48374c" stroke-width="2"/>
      <circle cx="976" cy="320" r="72" fill="#b96a9c"/>
      <rect x="928" y="410" width="96" height="260" rx="32" fill="#b96a9c"/>
      <text x="826" y="810" fill="#d3b9cf" font-size="22" font-weight="600">Side</text>
    </g>
  </g>
</svg>
